<?xml version="1.0" standalone="no"?>
<!DOCTYPE svg PUBLIC "-//W3C//DTD SVG 20010904//EN"
 "http://www.w3.org/TR/2001/REC-SVG-20010904/DTD/svg10.dtd">
<svg version="1.0" xmlns="http://www.w3.org/2000/svg"
 width="800.000000pt" height="800.000000pt" viewBox="0 0 800.000000 800.000000"
 preserveAspectRatio="xMidYMid meet">

<g transform="translate(0.000000,800.000000) scale(0.100000,-0.100000)"
fill="#000000" stroke="none">
<path d="M0 7368 l0 -631 298 7 c163 4 369 9 457 11 1617 44 2685 59 2706 38
14 -14 -2 -83 -25 -106 -12 -11 -133 -16 -643 -25 -595 -11 -1749 -21 -2465
-22 l-328 0 0 -3320 0 -3320 1020 0 1021 0 -7 67 c-3 38 -12 131 -20 208 -63
618 -65 702 -20 1196 8 91 27 245 41 344 14 98 28 231 32 296 6 125 2 140 -42
147 -39 6 -45 12 -45 45 0 40 10 51 68 69 51 16 55 26 77 203 13 107 25 196
39 290 2 17 5 36 5 43 1 6 8 12 16 12 9 0 15 9 15 25 0 14 5 25 10 25 6 0 10
-12 10 -26 0 -26 35 -94 49 -94 13 0 45 45 43 60 -3 17 46 50 65 43 7 -2 9
-11 6 -19 -3 -8 1 -22 9 -32 22 -24 58 -139 58 -183 0 -20 5 -60 10 -90 6 -29
11 -145 12 -257 2 -130 6 -195 11 -180 5 13 15 34 22 48 7 14 15 37 18 51 10
39 38 319 36 354 0 17 0 35 1 40 4 18 7 59 8 113 2 44 5 52 21 52 24 0 88 27
96 40 5 8 13 6 25 -5 16 -15 20 -13 58 22 43 41 76 98 67 113 -4 6 -10 8 -15
5 -5 -3 -14 3 -19 14 -15 27 -14 33 7 27 9 -3 23 -2 29 2 14 9 14 17 8 136 -2
52 1 94 10 120 12 35 12 42 -1 49 -12 7 -12 12 3 40 10 18 34 50 54 73 20 23
40 55 44 72 4 21 11 29 21 25 10 -4 14 3 14 23 0 16 11 52 25 79 l24 50 -30
-35 c-16 -19 -29 -29 -29 -22 0 25 40 116 73 165 41 63 97 158 125 212 12 22
35 51 51 64 17 13 31 29 31 36 0 15 24 37 32 30 17 -18 -41 -198 -84 -257 -11
-16 -17 -28 -13 -28 11 0 65 94 81 144 19 59 39 87 29 41 -4 -16 -9 -37 -11
-45 -4 -12 -3 -13 8 -2 7 7 15 52 19 106 l7 93 75 119 c41 66 77 129 81 142 4
12 12 22 17 22 5 0 9 7 9 16 0 10 6 14 14 11 21 -8 28 4 10 18 -14 10 -14 15
-1 47 9 20 12 39 9 43 -4 3 1 3 10 0 16 -6 22 4 33 55 9 38 38 120 43 120 4 0
15 -20 25 -45 25 -59 43 -58 45 3 1 26 5 68 8 95 5 41 9 48 32 53 46 10 53 14
47 24 -6 10 -18 99 -17 138 0 12 -4 22 -8 22 -7 0 -28 81 -33 133 -2 17 3 32
12 37 13 7 10 9 -11 10 -15 0 -31 6 -35 13 -4 8 -35 26 -67 41 -32 14 -65 34
-72 44 -10 13 -12 60 -9 199 2 100 0 206 -4 236 -6 42 -4 61 10 86 11 21 20
28 24 21 6 -9 10 -9 16 1 8 12 12 11 22 -3 8 -10 26 -16 48 -15 20 1 33 -2 32
-9 -1 -6 10 -11 25 -12 64 -2 126 -13 145 -27 29 -20 41 -19 19 3 -24 23 -71
45 -105 48 -16 1 -34 7 -40 13 -6 6 -20 11 -32 11 -11 0 -33 9 -50 20 -16 11
-38 20 -49 20 -15 0 -17 5 -12 32 3 17 17 46 31 64 25 33 25 33 5 44 -11 6
-25 8 -31 5 -5 -4 -16 -1 -24 5 -8 7 -15 9 -15 4 -1 -21 -20 23 -20 46 -1 24
-1 24 -15 6 -8 -11 -13 -29 -10 -40 4 -18 4 -18 -7 2 -8 17 -8 31 0 61 7 21
12 56 12 78 0 51 18 102 77 225 37 75 51 97 64 93 13 -4 16 1 16 22 0 15 6 29
12 31 6 2 8 9 5 14 -4 6 -3 9 2 6 5 -3 38 -9 74 -13 36 -3 73 -9 83 -11 9 -3
26 -3 36 1 26 8 17 36 -29 87 -21 22 -36 47 -33 55 3 7 0 13 -7 13 -6 0 -8 -4
-5 -10 7 -12 -6 -13 -31 -3 -16 6 -16 7 2 14 17 7 17 8 -3 8 -13 1 -23 5 -23
9 0 4 -12 8 -27 7 -24 0 -28 4 -25 25 6 40 26 74 45 78 18 4 127 -36 137 -50
3 -4 23 -14 44 -23 35 -15 38 -15 33 -1 -4 9 -2 16 3 16 40 0 -63 102 -127
126 -42 16 -54 38 -34 60 5 5 32 52 61 104 72 130 142 208 227 253 73 38 118
47 352 71 l135 14 33 -33 c21 -21 29 -35 21 -37 -9 -3 -8 -9 5 -22 9 -10 17
-23 17 -31 0 -7 7 -16 16 -19 10 -4 14 -14 11 -25 -3 -11 3 -28 14 -40 11 -11
19 -23 19 -26 0 -3 9 -15 19 -26 17 -19 38 -68 69 -169 15 -47 61 -351 63
-418 1 -29 6 -55 11 -58 5 -3 6 -14 3 -24 -3 -10 -2 -21 4 -24 12 -8 13 -299
1 -356 -18 -82 -20 -89 -30 -115 -6 -15 -10 -40 -10 -56 0 -16 -7 -40 -16 -54
-12 -19 -13 -31 -5 -61 7 -24 7 -43 1 -55 -14 -26 -12 -33 5 -19 13 10 15 9
15 -9 0 -12 -4 -19 -10 -16 -6 4 -10 -12 -10 -39 0 -25 -4 -46 -10 -46 -5 0
-10 -6 -10 -14 0 -9 9 -14 20 -13 13 1 19 6 15 15 -3 8 -1 10 8 5 6 -4 23 -8
36 -8 20 0 27 -9 44 -58 18 -50 19 -59 7 -68 -8 -5 -24 -7 -35 -5 -19 5 -19 4
2 -13 l22 -18 -23 -22 c-27 -26 -46 -27 -67 -3 -9 9 -24 22 -33 27 -10 6 -21
25 -24 43 l-7 33 -62 -62 c-35 -33 -63 -65 -63 -70 0 -5 -6 -9 -13 -9 -7 0
-21 -13 -30 -30 -20 -33 -7 -42 22 -16 9 8 30 18 46 22 29 7 30 7 12 -13 -9
-11 -15 -26 -12 -34 3 -8 -34 -55 -94 -117 -55 -56 -110 -117 -122 -135 l-23
-32 25 20 c13 11 32 29 42 40 10 11 21 16 23 10 3 -5 20 -39 37 -75 29 -58 37
-66 82 -84 28 -11 55 -25 60 -32 13 -15 50 -35 165 -87 100 -46 214 -127 291
-207 53 -55 160 -213 209 -310 19 -36 60 -100 91 -142 133 -178 199 -346 239
-605 30 -196 23 -393 -25 -653 -74 -396 -96 -559 -110 -800 -7 -118 8 -329 31
-435 10 -44 19 -160 24 -315 5 -135 13 -267 18 -295 48 -240 46 -361 -12 -575
-79 -295 -85 -326 -92 -463 l-7 -137 1236 0 1237 0 0 3401 0 3401 -132 -6
c-300 -15 -1254 -51 -1593 -61 -489 -13 -663 -16 -688 -10 -21 6 -30 17 -41
54 -25 84 -17 87 329 96 116 3 275 7 355 10 139 5 698 19 1205 30 132 3 313 8
403 11 l162 6 0 534 0 534 -4000 0 -4000 0 0 -632z m7904 -3 c2 -7 -2 -19 -11
-26 -13 -11 -17 -10 -29 6 -10 13 -11 22 -3 31 12 15 35 9 43 -11z m-5380
-203 c32 -104 35 -155 9 -184 -20 -22 -31 -23 -55 -1 -15 13 -18 32 -18 104 0
137 33 178 64 81z m-1273 -82 c27 -15 25 -64 -3 -84 -30 -21 -47 -20 -75 6
-27 25 -28 36 -7 66 16 24 53 29 85 12z m2537 -309 c10 -6 10 -10 -3 -21 -8
-7 -15 -23 -15 -36 0 -27 -3 -28 -31 -14 -21 12 -24 32 -9 61 11 20 36 24 58
10z m45 -75 c-6 -10 -13 -12 -23 -6 -10 7 -11 10 -2 10 6 0 12 8 12 17 0 12 3
14 11 6 7 -7 8 -17 2 -27z m2613 -989 c4 -4 18 -7 30 -7 53 0 83 -94 45 -141
-26 -33 -101 -34 -132 -3 -24 25 -38 114 -17 114 8 0 6 5 -4 11 -17 10 -24 39
-13 51 7 6 80 -14 91 -25z m-248 -59 c16 -16 15 -53 0 -65 -39 -30 -78 -14
-78 31 0 28 18 46 45 46 12 0 26 -5 33 -12z m-1372 -283 c4 -14 9 -24 12 -21
7 7 32 -14 32 -26 0 -6 -8 -4 -17 3 -17 13 -17 13 0 -7 9 -11 17 -26 17 -32 0
-7 5 -12 10 -12 6 0 10 -11 10 -24 0 -14 5 -28 10 -31 6 -3 10 -10 10 -16 0
-20 -17 -7 -49 41 -19 28 -41 50 -50 50 -13 1 -13 3 3 15 13 10 16 18 9 27
-14 19 -23 58 -12 58 5 0 11 -11 15 -25z m-88 -10 c-3 -3 -9 2 -12 12 -6 14
-5 15 5 6 7 -7 10 -15 7 -18z m-108 -86 c0 -5 -4 -9 -10 -9 -5 0 -10 7 -10 16
0 8 5 12 10 9 6 -3 10 -10 10 -16z m4 -75 c3 -9 11 -12 17 -8 7 4 9 3 6 -3 -5
-9 43 -53 58 -53 3 0 32 -26 64 -58 32 -32 92 -79 132 -104 69 -43 122 -88
105 -88 -4 0 -53 26 -109 59 -56 32 -132 74 -168 94 -94 52 -159 128 -159 188
0 18 1 19 24 4 13 -9 27 -23 30 -31z m-1964 -375 c0 -10 -4 -19 -10 -19 -5 0
-10 12 -10 26 0 14 4 23 10 19 6 -3 10 -15 10 -26z m-471 -284 c-10 -9 -99
-13 -105 -4 -3 5 21 9 52 9 32 0 55 -2 53 -5z"/>
<path d="M4319 6799 c-11 -11 -19 -23 -16 -25 3 -3 16 6 30 20 15 14 22 26 17
26 -6 0 -19 -9 -31 -21z"/>
<path d="M4354 6785 c-16 -12 -17 -14 -3 -15 9 0 19 7 23 15 7 19 5 19 -20 0z"/>
<path d="M4390 6775 c-8 -9 -4 -14 12 -18 12 -4 19 -9 15 -13 -12 -12 27 -33
61 -34 18 0 31 -5 30 -11 -2 -6 20 -18 47 -27 59 -19 73 -29 143 -101 63 -66
68 -48 11 37 -47 71 -106 122 -142 122 -13 0 -30 7 -37 15 -7 8 -18 15 -26 15
-7 0 -25 5 -41 11 -40 17 -62 18 -73 4z m187 -71 c-3 -3 -12 -4 -19 -1 -8 3
-5 6 6 6 11 1 17 -2 13 -5z"/>
<path d="M4299 6568 c-13 -5 -31 -16 -41 -25 -9 -8 -22 -12 -27 -8 -6 3 -11 2
-11 -3 0 -14 28 -23 32 -11 2 6 32 13 67 16 60 6 64 5 56 -13 -4 -10 -10 -33
-12 -50 -5 -29 -3 -31 57 -49 34 -10 72 -26 84 -35 11 -9 33 -20 47 -23 24 -6
25 -4 21 24 -2 17 -11 33 -18 36 -8 3 -11 9 -8 15 7 11 -47 68 -98 104 -40 28
-106 38 -149 22z m119 -93 c-1 -14 -3 -25 -4 -25 -12 0 -34 14 -34 22 0 5 5 6
10 3 6 -3 10 1 10 9 0 9 4 16 10 16 5 0 9 -11 8 -25z m31 -8 c0 -21 -1 -21 -9
-2 -12 28 -12 37 0 30 6 -3 10 -16 9 -28z m55 -32 c4 -10 -1 -15 -16 -15 -17
0 -18 2 -8 15 7 8 14 15 15 15 2 0 5 -7 9 -15z"/>
<path d="M4095 5880 c-3 -5 1 -10 10 -10 9 0 13 5 10 10 -3 6 -8 10 -10 10 -2
0 -7 -4 -10 -10z"/>
<path d="M3920 5860 c-11 -7 -12 -12 -4 -20 16 -16 76 -8 82 10 4 12 2 13 -9
3 -18 -18 -47 -16 -51 2 -2 10 -7 12 -18 5z"/>
<path d="M4861 5614 c0 -11 3 -14 6 -6 3 7 2 16 -1 19 -3 4 -6 -2 -5 -13z"/>
<path d="M4885 5550 c-16 -7 -17 -9 -3 -9 9 -1 20 4 23 9 7 11 7 11 -20 0z"/>
<path d="M4069 4392 c-24 -21 -61 -50 -81 -63 -27 -19 -34 -29 -28 -39 8 -12
26 1 87 63 83 82 94 101 22 39z"/>
<path d="M3119 3823 c-13 -16 -12 -17 4 -4 16 13 21 21 13 21 -2 0 -10 -8 -17
-17z"/>
<path d="M3069 3774 c-13 -15 -18 -25 -10 -22 13 4 49 48 39 48 -2 0 -15 -12
-29 -26z"/>
<path d="M3100 3755 c-13 -14 -21 -27 -19 -30 3 -2 17 9 33 25 15 17 24 30 19
30 -5 0 -20 -11 -33 -25z"/>
<path d="M4122 3180 c0 -14 2 -19 5 -12 2 6 2 18 0 25 -3 6 -5 1 -5 -13z"/>
<path d="M4111 3134 c0 -11 3 -14 6 -6 3 7 2 16 -1 19 -3 4 -6 -2 -5 -13z"/>
<path d="M2456 2078 c-8 -83 6 -358 24 -486 4 -30 8 -90 9 -135 1 -45 6 -140
11 -212 5 -71 10 -227 10 -345 3 -716 10 -915 31 -893 10 11 89 352 92 400 1
21 6 41 11 45 6 4 15 78 22 165 13 167 47 419 119 906 25 164 45 306 45 316 0
13 -17 22 -62 36 -74 22 -175 74 -229 117 -39 31 -65 85 -72 143 -1 17 -7 -9
-11 -57z"/>
</g>
</svg>
